<svg width="49" height="31" viewBox="0 0 49 31" fill="none" xmlns="http://www.w3.org/2000/svg">
<path d="M3.55297 30.0455V12.858H8.8264C9.70531 12.858 10.3694 13.0598 10.8186 13.4634C11.2678 13.8606 11.5673 14.4205 11.717 15.1431C11.8733 15.8593 11.9514 16.7024 11.9514 17.6724C11.9514 18.6099 11.831 19.3586 11.5901 19.9185C11.3557 20.4784 10.9097 20.8658 10.2522 21.0806C10.7925 21.1913 11.1702 21.4615 11.385 21.8912C11.6064 22.3144 11.717 22.8645 11.717 23.5416V30.0455H8.32836V23.317C8.32836 22.8157 8.22419 22.5064 8.01586 22.3892C7.81403 22.2655 7.48526 22.2037 7.02953 22.2037V30.0455H3.55297ZM7.04906 19.2252H7.87914C8.3544 19.2252 8.59203 18.7076 8.59203 17.6724C8.59203 17.0019 8.53994 16.5624 8.43578 16.3541C8.33161 16.1457 8.1363 16.0416 7.84984 16.0416H7.04906V19.2252ZM15.928 30.0455V12.858H19.2483V30.0455H15.928ZM27.6194 30.2017C26.3759 30.2017 25.3733 29.8144 24.6116 29.0396C23.8564 28.2649 23.4787 27.1809 23.4787 25.7877V17.858C23.4787 16.1913 23.8075 14.9153 24.4651 14.0298C25.1291 13.1444 26.2066 12.7017 27.6975 12.7017C28.5113 12.7017 29.234 12.8515 29.8655 13.1509C30.5035 13.4504 31.0048 13.8996 31.3694 14.4986C31.734 15.091 31.9162 15.8397 31.9162 16.7447V19.7134H28.4983V17.1744C28.4983 16.6601 28.4332 16.315 28.303 16.1392C28.1728 15.9569 27.9709 15.8658 27.6975 15.8658C27.3785 15.8658 27.1636 15.983 27.053 16.2173C26.9423 16.4452 26.8869 16.7512 26.8869 17.1353V25.7388C26.8869 26.2141 26.9553 26.5494 27.092 26.7447C27.2353 26.94 27.4371 27.0377 27.6975 27.0377C27.9905 27.0377 28.1955 26.9172 28.3127 26.6763C28.4364 26.4354 28.4983 26.1229 28.4983 25.7388V22.6431H31.9553V25.8951C31.9553 27.4055 31.5744 28.5025 30.8127 29.1861C30.051 29.8632 28.9866 30.2017 27.6194 30.2017ZM36.1077 30.0455V12.858H39.5061V19.7427L41.1077 12.858H44.5647L42.6409 20.7291L44.9651 30.0455H41.4006L39.5256 21.7252V30.0455H36.1077Z" fill="white"/>
<path d="M6.31412 6.61966C6.20648 6.76764 5.58756 7.18468 5.58756 7.18468C6.1123 7.26539 7.39589 7.16854 8.33234 6.13537H7.76724C8.34579 5.66452 10.6815 4.81162 15.3961 5.16677L19.0289 3.67352L16.0016 5.16677H18.5849L24.1148 2.94707L23.1461 2.86636H22.1369C22.3657 2.67802 23.4367 2.3417 25.8908 2.50313C27.2498 2.44932 31.2351 2.76143 36.3048 4.44033C35.9819 4.46723 35.2877 4.57754 35.0939 4.80355C35.7666 4.60176 37.879 4.31925 40.9467 4.80355C41.4176 4.89772 42.4564 5.23134 42.8439 5.48964H44.4988C44.6199 5.52999 44.854 5.65914 44.8217 5.85286H43.3686L43.6511 6.01429C43.5166 6.33716 43.3928 7.03132 43.9741 7.22504L44.4988 7.70933H45.1043C45.1043 7.53445 44.6603 6.66002 44.6603 6.66002C44.9832 6.88872 45.6129 7.52369 45.5483 8.23399C45.4675 9.12187 44.9428 9.80796 44.9428 9.80796C45.0504 9.5389 45.2496 8.89586 45.185 8.47614H44.8217C44.593 9.21604 43.8449 10.6878 42.6824 10.6555C43.0322 10.4671 43.8691 9.71917 44.4181 8.23399C43.7588 7.76314 42.5613 6.70038 43.0457 6.21608C42.7497 6.05465 41.7459 5.77214 40.0991 5.93358C40.1529 5.82595 40.3655 5.57035 40.7853 5.40892C38.7401 4.92462 34.0364 4.60983 31.5822 7.22504C31.8244 6.79912 32.6155 5.76697 33.8426 5.0457C32.4029 4.21163 28.6033 2.64842 24.9221 3.06815L19.9169 5.16677H27.6265L29.9273 4.48068C29.9273 4.41342 29.8546 4.20625 29.564 3.91567C29.8062 3.98293 30.3067 4.22239 30.3713 4.64211C30.4924 4.73628 30.0726 5.06184 27.4247 5.61071H11.1578C10.66 5.69143 9.5029 5.95779 8.85708 6.37752C8.43998 6.86181 7.11334 7.79812 5.14356 7.66898L4.53809 7.91112H6.43522C6.34103 8.0322 5.9347 8.27435 5.06283 8.27435L5.95084 10.6555C5.70866 10.6958 5.08705 10.7523 4.53809 10.6555L5.46647 10.494L4.57846 8.31471L3.12534 8.43578C3.08498 8.5165 3.10112 8.97658 3.48862 10.1712C3.23298 9.78105 2.72169 8.86358 2.72169 8.31471C3.12534 8.16673 4.40893 7.62054 6.31412 6.61966Z" fill="white"/>
</svg>
