<svg width="25" height="22" viewBox="0 0 25 22" fill="none" xmlns="http://www.w3.org/2000/svg">
<path d="M17.1875 1.5625C17.1875 0.699555 17.8871 0 18.75 0H21.875C22.7379 0 23.4375 0.699556 23.4375 1.5625V20.3125H24.2188C24.6502 20.3125 25 20.6623 25 21.0938C25 21.5252 24.6502 21.875 24.2188 21.875H0.78125C0.349778 21.875 0 21.5252 0 21.0938C0 20.6623 0.349778 20.3125 0.78125 20.3125H1.5625V15.625C1.5625 14.7621 2.26206 14.0625 3.125 14.0625H6.25C7.11295 14.0625 7.8125 14.7621 7.8125 15.625V20.3125H9.375V9.375C9.375 8.51206 10.0746 7.8125 10.9375 7.8125H14.0625C14.9254 7.8125 15.625 8.51206 15.625 9.375V20.3125H17.1875V1.5625Z" fill="#373737"/>
</svg>
