<svg width="20" height="20" viewBox="0 0 20 20" fill="none" xmlns="http://www.w3.org/2000/svg">
<path d="M19.377 2.42418C19.6211 2.66825 19.6211 3.06398 19.377 3.30806L18.0734 4.61166L15.5734 2.11166L16.877 0.808058C17.1211 0.56398 17.5168 0.563981 17.7609 0.808058L19.377 2.42418Z" fill="#373737"/>
<path d="M17.1895 5.49554L14.6895 2.99554L6.17326 11.5118C6.10465 11.5804 6.05296 11.664 6.02228 11.7561L5.01658 14.7732C4.93514 15.0175 5.16756 15.2499 5.41186 15.1685L8.42896 14.1628C8.52101 14.1321 8.60465 14.0804 8.67326 14.0118L17.1895 5.49554Z" fill="#373737"/>
<path fill-rule="evenodd" clip-rule="evenodd" d="M1.25 16.875C1.25 17.9105 2.08947 18.75 3.125 18.75H16.875C17.9105 18.75 18.75 17.9105 18.75 16.875V9.375C18.75 9.02982 18.4702 8.75 18.125 8.75C17.7798 8.75 17.5 9.02982 17.5 9.375V16.875C17.5 17.2202 17.2202 17.5 16.875 17.5H3.125C2.77982 17.5 2.5 17.2202 2.5 16.875V3.125C2.5 2.77982 2.77982 2.5 3.125 2.5H11.25C11.5952 2.5 11.875 2.22018 11.875 1.875C11.875 1.52982 11.5952 1.25 11.25 1.25H3.125C2.08947 1.25 1.25 2.08947 1.25 3.125V16.875Z" fill="#373737"/>
</svg>
