<svg width="25" height="25" viewBox="0 0 25 25" fill="none" xmlns="http://www.w3.org/2000/svg">
<path fill-rule="evenodd" clip-rule="evenodd" d="M17.1875 23.4375C20.6393 23.4375 23.4375 20.6393 23.4375 17.1875C23.4375 13.7357 20.6393 10.9375 17.1875 10.9375C13.7357 10.9375 10.9375 13.7357 10.9375 17.1875C10.9375 20.6393 13.7357 23.4375 17.1875 23.4375ZM25 17.1875C25 21.5022 21.5022 25 17.1875 25C12.8728 25 9.375 21.5022 9.375 17.1875C9.375 12.8728 12.8728 9.375 17.1875 9.375C21.5022 9.375 25 12.8728 25 17.1875Z" fill="#373737"/>
<path d="M14.7461 18.6631C14.8206 19.5943 15.5558 20.3201 16.877 20.4061V21.0938H17.4632V20.4013C18.8292 20.3058 19.6289 19.5752 19.6289 18.5151C19.6289 17.5504 19.0179 17.0538 17.9251 16.7959L17.4632 16.6861V14.8141C18.0493 14.881 18.4219 15.2009 18.5113 15.6451H19.5395C19.465 14.7473 18.6951 14.0453 17.4632 13.9689V13.2812H16.877V13.9832C15.7097 14.0978 14.915 14.7998 14.915 15.7931C14.915 16.6718 15.5061 17.2305 16.4896 17.4597L16.877 17.5552V19.5418C16.276 19.451 15.8786 19.1215 15.7892 18.6631H14.7461ZM16.8721 16.5476C16.2959 16.4139 15.9829 16.1417 15.9829 15.731C15.9829 15.2726 16.3207 14.9288 16.877 14.8285V16.5476H16.8721ZM17.5476 17.7128C18.248 17.8752 18.5709 18.1378 18.5709 18.601C18.5709 19.1311 18.1685 19.494 17.4632 19.5609V17.6937L17.5476 17.7128Z" fill="#373737"/>
<path d="M1.5625 0C0.699555 0 0 0.699556 0 1.5625V14.0625C0 14.9254 0.699555 15.625 1.5625 15.625H7.94212C8.03234 15.0873 8.16833 14.565 8.34596 14.0625H4.6875C4.6875 12.3366 3.28839 10.9375 1.5625 10.9375V4.6875C3.28839 4.6875 4.6875 3.28839 4.6875 1.5625H20.3125C20.3125 3.28839 21.7116 4.6875 23.4375 4.6875V10.1997C24.0314 10.7312 24.5572 11.3374 25 12.0034V1.5625C25 0.699555 24.3004 0 23.4375 0H1.5625Z" fill="#373737"/>
<path d="M15.6223 7.94257C15.6241 7.89943 15.625 7.85607 15.625 7.8125C15.625 6.08661 14.2259 4.6875 12.5 4.6875C10.7741 4.6875 9.375 6.08661 9.375 7.8125C9.375 8.88204 9.9123 9.82608 10.7317 10.3894C12.0545 9.13287 13.7436 8.25832 15.6223 7.94257Z" fill="#373737"/>
</svg>
