<svg width="25" height="25" viewBox="0 0 25 25" fill="none" xmlns="http://www.w3.org/2000/svg">
<path d="M6.25 0.78125C6.25 0.349778 5.90022 0 5.46875 0C5.03728 0 4.6875 0.349778 4.6875 0.78125V1.5625H3.125C1.39911 1.5625 0 2.96161 0 4.6875V6.25H25V4.6875C25 2.96161 23.6009 1.5625 21.875 1.5625H20.3125V0.78125C20.3125 0.349778 19.9627 0 19.5312 0C19.0998 0 18.75 0.349778 18.75 0.78125V1.5625H6.25V0.78125Z" fill="#373737"/>
<path d="M25 21.875V7.8125H0V21.875C0 23.6009 1.39911 25 3.125 25H21.875C23.6009 25 25 23.6009 25 21.875ZM16.9587 13.8337L12.2712 18.5212C12.1247 18.6677 11.926 18.75 11.7188 18.75C11.5115 18.75 11.3128 18.6677 11.1663 18.5212L8.82257 16.1774C8.51748 15.8723 8.51748 15.3777 8.82257 15.0726C9.12767 14.7675 9.62233 14.7675 9.92743 15.0726L11.7188 16.8639L15.8538 12.7288C16.1589 12.4237 16.6536 12.4237 16.9587 12.7288C17.2638 13.0339 17.2638 13.5286 16.9587 13.8337Z" fill="#373737"/>
</svg>
